<svg width="1199" height="1080" viewBox="0 0 1199 1080" fill="none" xmlns="http://www.w3.org/2000/svg">
<path fill-rule="evenodd" clip-rule="evenodd" d="M750.068 -31.3933C872.492 -3.67854 975.32 48.9729 1092.4 90.3595C1259.67 149.491 1516.47 118.072 1582.24 262.782C1646.79 404.824 1428.08 525.069 1352.7 663.121C1290.18 777.598 1299.85 929.735 1178.76 1001.67C1058.12 1073.33 896.368 1011.99 750.068 1021.12C587.032 1031.28 420.178 1120.28 273.617 1058.12C122.239 993.908 22.9935 847.59 1.84893 703.744C-17.9646 568.953 127.12 463.755 166.92 332.264C210.848 187.136 104.249 -13.243 245.54 -101.354C386.84 -189.47 581.209 -69.62 750.068 -31.3933Z" fill="url(#paint0_linear_1_19)"/>
<defs>
<linearGradient id="paint0_linear_1_19" x1="797" y1="-133" x2="797" y2="1080" gradientUnits="userSpaceOnUse">
<stop stop-color="#AF1B3F"/>
<stop offset="1" stop-color="#DF9B6D"/>
</linearGradient>
</defs>
</svg>
